<svg width="21" height="21" viewBox="0 0 21 21" fill="none" xmlns="http://www.w3.org/2000/svg">
<path d="M0.443922 10.878C0.688699 16.3865 5.36951 20.669 10.878 20.4242C16.3865 20.1794 20.669 15.4986 20.4242 9.99014C20.1794 4.48123 15.4986 0.199148 9.99014 0.443925C4.48166 0.688702 0.199126 5.36908 0.443922 10.878ZM12.2114 6.01472C13.0308 5.00474 13.3298 4.78908 13.3809 4.75374C14.0015 4.32272 14.117 5.16842 14.117 5.16842L14.1965 6.95796C14.1965 6.95796 14.2206 7.39341 13.9905 7.77661C13.62 8.40107 12.8777 9.07077 13.0313 9.51134C13.16 9.8812 13.6663 9.85522 14.0994 9.83598C14.2545 9.82909 14.3299 9.95935 14.3432 10.2604C14.3566 10.5614 14.3622 10.6865 14.3681 10.8198C14.4117 11.8001 14.1288 12.8785 13.0671 13.9889C11.5662 15.5597 8.46695 17.0166 8.46695 17.0166C8.46695 17.0166 8.31143 17.1014 8.2108 17.021C8.09795 16.9298 8.10025 16.6682 8.10025 16.6682L8.02271 14.9329C8.02271 14.9329 8.04629 14.7683 8.1236 14.6473C8.18706 14.5474 8.3141 14.4878 8.3141 14.4878C8.3141 14.4878 9.26368 14.1536 9.86092 13.755C11.0266 12.9764 11.042 12.6375 10.9021 12.397C10.6993 12.0456 9.43103 12.2195 9.43103 12.2195C9.43103 12.2195 8.88346 12.2277 8.64813 12.4262C8.46605 12.5792 8.37801 12.8603 8.36773 12.9818C8.35948 13.0801 8.18109 12.9244 8.07411 12.7207C7.93797 12.4482 7.88945 12.0713 7.86654 11.4186C7.84876 10.9106 7.87266 10.7629 7.90946 10.5628C8.02097 9.95768 8.39198 10.0896 9.67158 10.0327C10.0816 10.0145 10.6605 10.0454 10.8379 9.72762C10.9145 9.5906 10.9949 9.12919 9.63838 8.37475C8.99488 8.01644 7.94226 7.75552 7.94226 7.75552C7.94226 7.75552 7.82521 7.69718 7.76436 7.60109C7.70212 7.50289 7.70355 7.50587 7.69742 7.36775C7.69128 7.22962 7.61887 5.84495 7.60536 5.5409C7.59187 5.23729 7.57573 4.95251 7.75163 4.89551C8.00434 4.81378 8.89395 5.06932 9.87835 5.77327C11.4939 6.93009 11.354 7.07252 12.2114 6.01472Z" fill="black"/>
</svg>
